<svg xmlns="http://www.w3.org/2000/svg">
      <!-- width="62px" height="70px" -->
  <path fill="#135496" d="M38.1,70L31,65.5l24-14.3V23L31,8.1L7,23v28.2l24,14.3L23.9,70 L0,55.7V27.5L7,23v-9L31,0l24,14v9l7,4.5v28.2L38.1,70z M30,31.3V36H11c0.2-4.7,1.7-8.5,4.5-11.9C19.1,28.3,24.2,31,30,31.3z M30,42.7c-5.8,0.3-10.9,3-14.5,7.1c-2.9-3.4-4.3-7.2-4.5-11.9h19V42.7z M30,57c-5.1-0.2-9.7-2.4-13.1-5.7C20,47.5,24.7,45,30,44.7 V57z M30,17v12.3c-5.3-0.3-10-2.8-13.1-6.6C20.3,19.4,24.9,17.3,30,17z M32,29.3V17c5.1,0.2,9.7,2.4,13.1,5.7 C42,26.6,37.3,29.1,32,29.3z M51.1,36H32v-4.7c5.8-0.3,10.9-3,14.5-7.1C49.4,27.5,50.8,31.3,51.1,36z M46.5,49.9 c-3.5-4.2-8.7-6.9-14.5-7.1V38h19.1C50.8,42.7,49.4,46.5,46.5,49.9z M32,57V44.7c5.3,0.3,10,2.8,13.1,6.6C41.7,54.6,37.1,56.8,32,57 z"></path>
</svg>
