<svg version="1" xmlns="http://www.w3.org/2000/svg" width="138.667" height="138.667" viewBox="0 0 104.000000 104.000000"><path d="M38.3 18.3l-12.2 7.2-.1 5.2c0 2.9.3 5.3.6 5.3.4 0 6-3.2 12.5-7 6.5-3.9 12.3-7 12.9-7 .6 0 6.4 3.1 12.9 7 6.5 3.8 12.1 7 12.5 7 .3 0 .6-2.4.6-5.3v-5.2l-12.6-7.3c-6.9-3.9-13.1-7.2-13.7-7.1-.7 0-6.7 3.3-13.4 7.2z"/><path d="M44.5 30.2c-1.6.6-4.3 2-5.8 3.1-2.6 1.8-2.7 2-1.2 3.7 1.9 2.1 6.6 4.5 10.8 5.5l2.7.7v-7.1c0-7.8-.3-8.1-6.5-5.9zM53 36.1v7.1l2.8-.7c4.1-1 8.8-3.4 10.7-5.5 1.5-1.7 1.4-1.9-1.2-3.7-2.9-2.1-8.6-4.3-10.9-4.3-1.1 0-1.4 1.8-1.4 7.1z"/><path d="M20.8 39.6L16 42v30.8l13.1 7.6L42.3 88l4.8-2.7 4.9-2.6 4.9 2.6 4.8 2.7 13.2-7.6L88 72.8V42l-5-2.5-5-2.5v15.2l-.1 15.3-12.4 7.2C58.6 78.7 52.6 82 52 82c-.6 0-6.6-3.3-13.5-7.3l-12.4-7.2-.3-15.1-.3-15.2-4.7 2.4z"/><path d="M32.8 39.2c-1.7 2.6-3.8 8.4-3.8 10.4 0 1.1 2.4 1.4 11 1.4h11v-2.9c0-2.5-.5-3-3.2-3.6-4.1-.9-8.7-3.2-11.4-5.7-2.1-1.9-2.1-1.9-3.6.4zM68 38.5c-1.7 2.1-7.6 5.1-11.7 6-2.8.6-3.3 1.1-3.3 3.6V51h11c7.5 0 11-.4 11-1.1 0-2.4-2.3-8.6-3.9-10.8-1.6-2.1-1.8-2.1-3.1-.6zM29.5 56.7c.4 2.1 1.6 5.3 2.7 7.1l2 3.3 2.2-2c2.5-2.3 10.3-6 12.9-6.1 1.2 0 1.7-.8 1.7-3v-3H28.8l.7 3.7zM53 56c0 2.2.5 3 1.8 3 2.5.1 10.3 3.8 12.8 6.1l2.2 2 2-3.3c1.1-1.8 2.3-5 2.7-7.1l.7-3.7H53v3zM47 61.9c-3.7 1.2-8.5 3.8-9.9 5.4-1 1.2-.7 1.9 1.6 3.4 2.9 2.1 8.6 4.3 10.9 4.3 1.1 0 1.4-1.8 1.4-7 0-3.9-.3-7-.7-6.9-.5 0-1.9.4-3.3.8zM53 68c0 5.2.3 7 1.4 7 2.3 0 8-2.2 10.9-4.3 2.3-1.5 2.6-2.2 1.6-3.4-1.5-1.8-7.4-4.8-11.1-5.7L53 61v7z"/></svg>